<svg width="1219" height="120" viewBox="0 0 1219 120" fill="none" xmlns="http://www.w3.org/2000/svg">
<path d="M20.4915 44.3699C20.8695 43.8197 21.1559 43.1497 21.6388 42.7366C36.0502 30.4107 50.487 18.1181 64.9035 5.79893C67.7248 3.38808 70.6266 2.94894 73.8981 4.80737C84.6493 10.9148 95.4378 16.9489 106.205 23.0257C106.622 23.2613 106.963 23.6474 107.483 24.0829C104.704 28.1122 104.846 32.2443 107.13 36.3718C106.464 36.9957 105.912 37.5137 105.181 37.8698C104.979 37.408 104.953 37.1081 105.026 36.6196C104.571 33.5963 104.017 30.7616 103.454 27.8806C103.418 27.9115 103.183 28.1133 102.947 28.314C89.4846 39.7755 76.0015 51.2104 62.5881 62.7359C61.1156 64.0012 60.0911 64.0118 58.4536 63.0709C48.0975 57.1204 37.6624 51.3238 27.2678 45.448C25.3455 44.3614 23.463 43.6799 21.3753 44.9756C21.2396 45.0598 20.7933 44.5848 20.4915 44.3699ZM68.369 27.8694C71.8835 29.8538 75.3621 31.9163 78.9414 33.7602C79.7066 34.1544 81.1026 34.147 81.7529 33.6538C84.3798 31.6617 86.8288 29.4072 89.3554 27.2394C89.1408 26.964 89.0218 26.6845 88.8192 26.5699C82.0833 22.7604 75.3451 18.9551 68.5829 15.198C68.1578 14.9618 67.355 14.8721 67.0349 15.1339C64.2316 17.4263 61.4982 19.8141 58.5422 22.3465C61.919 24.2375 64.9841 25.9539 68.369 27.8694ZM75.6607 39.2546C68.1248 35.0175 60.5957 30.7666 53.0416 26.5663C52.358 26.1862 51.5128 26.1308 50.7427 25.9247C50.6339 26.2758 50.5252 26.627 50.4164 26.9782C52.0555 27.9138 53.6904 28.8578 55.3344 29.7837C61.77 33.4081 68.2019 37.0403 74.6596 40.6202C75.1367 40.8847 75.8079 40.7579 76.3888 40.813C76.2461 40.3727 76.1033 39.9325 75.6607 39.2546ZM60.4463 35.7809C57.8114 34.2934 55.1963 32.764 52.5249 31.3539C51.9938 31.0736 51.2469 31.2505 50.5995 31.2165C51.0063 31.761 51.3067 32.5106 51.8366 32.8181C56.7825 35.6884 61.7576 38.5035 66.76 41.2623C67.1886 41.4987 67.8736 41.2154 68.4395 41.1735C68.1522 40.7208 67.9626 40.0884 67.5616 39.845C65.3316 38.4911 63.0503 37.2316 60.4463 35.7809Z" fill="#020202"/>
<path d="M106.154 54.9209C107.915 55.9257 106.646 56.7701 105.94 57.4462C104.883 58.4588 103.686 59.3076 102.461 60.296C104.174 61.2759 105.734 62.1687 107.135 62.9705C106.527 65.3273 105.563 67.4649 105.541 69.6129C105.521 71.6893 106.472 73.7765 107.107 76.2946C105.044 78.0569 102.603 80.142 99.7553 82.1733C99.6583 81.408 99.8109 80.5215 100.31 80.0199C101.511 78.8118 102.926 77.8431 104.145 76.6523C104.593 76.2152 105.047 75.368 104.957 74.805C104.556 72.3066 103.959 69.8435 103.429 67.3474C103.216 67.5098 102.81 67.7901 102.435 68.1101C89.2188 79.3709 75.981 90.6034 62.8245 101.942C61.2365 103.31 60.073 103.427 58.2937 102.408C47.6986 96.3396 37.0432 90.3888 26.3979 84.4188C23.9454 83.0435 22.0743 83.3513 20.5845 85.2651C18.5824 87.8367 19.4837 90.7802 22.8845 92.6974C34.1747 99.0624 45.5494 105.268 56.7092 111.878C59.7244 113.665 61.7272 113.526 63.9584 110.994C64.3499 110.55 65.3086 110.664 66.0054 110.521C64.8369 111.792 63.5962 112.998 62.5166 114.349C60.8094 116.485 59.3499 115.108 57.7437 114.202C45.9571 107.551 34.1566 100.928 22.3508 94.3163C16.9819 91.3093 16.4688 86.7479 21.1109 82.4844C22.9801 80.7677 24.9651 79.1921 27.0414 77.4299C25.1798 76.3207 23.4715 75.3296 21.7875 74.2944C16.7104 71.1734 16.5407 66.1753 21.3738 62.5445C21.6438 62.3417 21.887 62.099 22.3165 62.0473C22.4938 62.7935 22.4974 63.3671 22.3473 64.0323C21.1578 65.5547 19.1637 67.1171 19.3194 68.3841C19.5317 70.1107 21.0675 72.2121 22.5868 73.1069C29.4428 77.1445 36.5064 80.7862 43.4693 84.6229C49.188 87.7739 54.8704 90.9987 60.5232 94.1652C75.218 81.6428 89.7589 69.2628 104.265 56.8374C104.708 56.4581 104.789 55.6069 105.225 54.9724C105.659 54.953 105.907 54.937 106.154 54.9209Z" fill="#080808"/>
<path d="M20.4935 44.38C20.7932 44.5848 21.2395 45.0599 21.3752 44.9756C23.4629 43.6799 25.3454 44.3615 27.2677 45.448C37.6624 51.3238 48.0974 57.1205 58.4535 63.0709C60.091 64.0118 61.1155 64.0012 62.588 62.7359C76.0015 51.2104 89.4846 39.7755 102.947 28.314C103.183 28.1133 103.418 27.9115 103.454 27.8806C104.017 30.7616 104.571 33.5963 104.864 36.6609C103.877 37.5615 103.15 38.2323 102.255 38.9585C101.272 39.7404 100.471 40.4847 99.6421 41.1909C87.2865 51.7113 74.8979 62.1888 62.6038 72.789C60.9893 74.1811 59.8828 74.2421 58.0775 73.2071C48.6007 67.774 39.0346 62.5153 29.375 57.0627C28.0019 56.2735 26.7532 55.6178 25.4195 54.8337C25.0582 54.6146 24.7819 54.5237 24.4111 54.29C23.722 53.8624 23.1273 53.5776 22.4414 53.1518C21.5909 52.3808 20.8318 51.7508 20.0422 50.9185C19.5025 50.115 18.9932 49.514 18.4839 48.9129C18.4289 48.7948 18.4104 48.6706 18.6489 48.6143C19.6467 47.3584 21.2405 46.371 20.4801 44.3962C20.4801 44.3962 20.4956 44.3899 20.4935 44.38Z" fill="#F9F9F9"/>
<path d="M66.0029 110.511C65.3085 110.664 64.3498 110.55 63.9582 110.994C61.7271 113.527 59.7242 113.665 56.709 111.878C45.5492 105.268 34.1745 99.0625 22.8844 92.6975C19.4836 90.7802 18.5823 87.8368 20.5843 85.2651C22.0742 83.3514 23.9452 83.0435 26.3977 84.4189C37.043 90.3889 47.6984 96.3396 58.2936 102.408C60.0729 103.427 61.2363 103.31 62.8244 101.942C75.9808 90.6035 89.2187 79.371 102.435 68.1101C102.81 67.7902 103.216 67.5098 103.428 67.3474C103.959 69.8436 104.556 72.3067 104.957 74.8051C105.047 75.3681 104.593 76.2152 104.145 76.6524C102.926 77.8431 101.511 78.8118 100.31 80.0199C99.8107 80.5216 99.6581 81.4081 99.5856 82.2796C99.8231 82.4396 99.8185 82.4488 99.8618 82.1807C99.0926 82.0631 98.076 81.9359 97.5003 82.4087C93.2971 85.861 89.1831 89.4346 85.0398 92.9683C78.956 98.1569 72.8581 103.327 66.8133 108.566C66.3555 108.963 66.2729 109.844 66.0159 110.499C66.0159 110.499 66.0005 110.501 66.0029 110.511Z" fill="#F9F9F9"/>
<path d="M29.4995 57.1961C39.0346 62.5153 48.6007 67.774 58.0775 73.2071C59.8828 74.2421 60.9893 74.1811 62.6038 72.789C74.8979 62.1888 87.2865 51.7113 99.6421 41.1909C100.471 40.4847 101.272 39.7404 102.331 39.1272C102.758 39.3942 102.94 39.5479 103.122 39.7016C103.496 40.3487 103.742 41.1733 104.274 41.6039C105.225 42.3743 106.349 42.9074 107.579 43.6474C105.263 47.148 104.048 50.6228 106.134 54.7067C105.907 54.937 105.659 54.953 105.108 54.8049C104.381 52.3124 103.956 49.9841 103.511 47.5477C103.006 47.9668 102.37 48.4819 101.746 49.013C88.6464 60.1622 75.5329 71.2925 62.4754 82.4958C61.1768 83.61 60.1864 83.7807 58.7069 82.937C48.3149 77.0111 37.9031 71.1227 27.4364 65.3462C25.9617 64.5323 24.1543 64.3925 22.5008 63.9407C22.4973 63.3671 22.4938 62.7935 22.4849 62.0048C23.7936 60.63 25.1076 59.4701 26.7116 58.2415C27.1692 58.1656 27.337 58.1584 27.6866 58.1506C28.4122 57.8319 28.9558 57.514 29.4995 57.1961Z" fill="black"/>
<path d="M66.1401 110.678C66.2731 109.844 66.3556 108.963 66.8135 108.566C72.8582 103.327 78.9562 98.1568 85.0399 92.9683C89.1833 89.4346 93.2972 85.8609 97.5004 82.4087C98.0761 81.9358 99.0928 82.0631 99.8395 82.1989C88.8959 91.7856 78.019 101.087 67.1349 110.379C66.8856 110.592 66.5562 110.7 66.1401 110.678Z" fill="#080808"/>
<path d="M29.375 57.0627C28.9558 57.514 28.4121 57.8319 27.6648 57.9793C27.1378 57.5711 26.8145 57.3335 26.4913 57.0958C25.7945 56.7415 25.0977 56.3871 24.5547 55.792C24.9738 55.3549 25.2392 55.1584 25.5045 54.962C26.7532 55.6177 28.0019 56.2735 29.375 57.0627Z" fill="#020202"/>
<path d="M20.0726 51.1209C20.8317 51.7508 21.5909 52.3808 22.4327 53.3453C22.5114 54.0674 22.5075 54.4549 22.5035 54.8424C21.3785 54.011 20.2536 53.1795 19.2969 52.068C19.6676 51.5656 19.8701 51.3433 20.0726 51.1209Z" fill="#080808"/>
<path d="M20.3229 44.234C21.2404 46.371 19.6467 47.3584 18.676 48.5232C19.0437 46.9294 19.6047 45.5007 20.3229 44.234Z" fill="#020202"/>
<path d="M103.286 39.7289C102.94 39.5479 102.758 39.3942 102.5 39.0718C103.15 38.2323 103.877 37.5615 104.766 36.8494C104.953 37.1081 104.979 37.408 105.017 37.9332C104.504 38.6911 103.977 39.2237 103.286 39.7289Z" fill="#080808"/>
<path d="M20.0423 50.9185C19.8702 51.3433 19.6678 51.5656 19.2617 51.8799C18.7295 51.0224 18.4008 50.0729 18.2781 49.0182C18.9933 49.514 19.5026 50.115 20.0423 50.9185Z" fill="#020202"/>
<path d="M22.6299 54.9545C22.5075 54.4549 22.5115 54.0674 22.5241 53.4864C23.1273 53.5777 23.722 53.8625 24.3949 54.5005C24.3897 55.1189 24.3062 55.3842 24.2227 55.6495C23.7338 55.4552 23.245 55.2609 22.6299 54.9545Z" fill="#020202"/>
<path d="M24.2375 55.6387C24.3062 55.3842 24.3897 55.1189 24.4895 54.6432C24.782 54.5237 25.0583 54.6145 25.4196 54.8337C25.2393 55.1584 24.9739 55.3548 24.4669 55.604C24.2252 55.6568 24.2524 55.628 24.2375 55.6387Z" fill="#080808"/>
<path d="M26.5745 57.2649C26.8144 57.3334 27.1377 57.571 27.4828 57.9799C27.3368 58.1584 27.1691 58.1655 26.8756 58.1685C26.7191 57.9209 26.6884 57.6774 26.5745 57.2649Z" fill="#080808"/>
<path d="M68.2091 27.7698C64.9842 25.9539 61.919 24.2375 58.5422 22.3465C61.4982 19.8141 64.2316 17.4263 67.0349 15.1339C67.3551 14.8722 68.1578 14.9618 68.5829 15.198C75.3451 18.9551 82.0833 22.7604 88.8192 26.5699C89.0218 26.6845 89.1408 26.9641 89.3554 27.2394C86.8289 29.4072 84.3799 31.6617 81.7529 33.6539C81.1026 34.147 79.7066 34.1545 78.9414 33.7602C75.3621 31.9163 71.8835 29.8538 68.2091 27.7698Z" fill="#F9F9F9"/>
<path d="M75.8105 39.3735C76.1032 39.9325 76.246 40.3728 76.3887 40.813C75.8078 40.7579 75.1366 40.8847 74.6595 40.6202C68.2018 37.0403 61.7699 33.4081 55.3343 29.7837C53.6903 28.8578 52.0554 27.9139 50.4163 26.9782C50.525 26.627 50.6338 26.2759 50.7426 25.9247C51.5127 26.1308 52.3579 26.1862 53.0414 26.5663C60.5956 30.7667 68.1247 35.0175 75.8105 39.3735Z" fill="#E1E1E1"/>
<path d="M60.6163 35.8603C63.0502 37.2316 65.3315 38.4911 67.5615 39.8451C67.9625 40.0885 68.1521 40.7208 68.4394 41.1736C67.8735 41.2155 67.1885 41.4987 66.7599 41.2624C61.7575 38.5035 56.7824 35.6884 51.8364 32.8181C51.3066 32.5106 51.0062 31.761 50.5994 31.2165C51.2468 31.2505 51.9937 31.0737 52.5248 31.354C55.1962 32.764 57.8113 34.2934 60.6163 35.8603Z" fill="#E0E0E0"/>
<path d="M22.3473 64.0324C24.1543 64.3925 25.9618 64.5323 27.4365 65.3462C37.9032 71.1227 48.315 77.0111 58.707 82.937C60.1865 83.7807 61.1769 83.61 62.4754 82.4958C75.5329 71.2925 88.6465 60.1622 101.746 49.013C102.37 48.4819 103.006 47.9667 103.511 47.5477C103.956 49.9841 104.381 52.3124 104.922 54.8082C104.789 55.6069 104.708 56.4581 104.265 56.8374C89.7589 69.2628 75.218 81.6428 60.5231 94.1651C54.8703 90.9987 49.188 87.7739 43.4693 84.6229C36.5063 80.7862 29.4427 77.1445 22.5868 73.1069C21.0674 72.2121 19.5316 70.1107 19.3194 68.3841C19.1637 67.1171 21.1578 65.5547 22.3473 64.0324Z" fill="#F9F9F9"/>
<path d="M569.991 44.3699C570.369 43.8197 570.656 43.1497 571.139 42.7366C585.55 30.4107 599.987 18.1181 614.403 5.79893C617.225 3.38808 620.126 2.94894 623.398 4.80737C634.149 10.9148 644.938 16.9489 655.704 23.0257C656.122 23.2613 656.463 23.6474 656.983 24.0829C654.203 28.1122 654.345 32.2443 656.63 36.3718C655.964 36.9957 655.411 37.5137 654.681 37.8698C654.478 37.408 654.453 37.1081 654.526 36.6196C654.07 33.5963 653.517 30.7616 652.954 27.8806C652.918 27.9115 652.683 28.1133 652.447 28.314C638.984 39.7755 625.501 51.2104 612.088 62.7359C610.615 64.0012 609.591 64.0118 607.953 63.0709C597.597 57.1204 587.162 51.3238 576.768 45.448C574.845 44.3614 572.963 43.6799 570.875 44.9756C570.739 45.0598 570.293 44.5848 569.991 44.3699ZM617.869 27.8694C621.383 29.8538 624.862 31.9163 628.441 33.7602C629.206 34.1544 630.602 34.147 631.253 33.6538C633.88 31.6617 636.329 29.4072 638.855 27.2394C638.641 26.964 638.521 26.6845 638.319 26.5699C631.583 22.7604 624.845 18.9551 618.083 15.198C617.658 14.9618 616.855 14.8721 616.535 15.1339C613.731 17.4263 610.998 19.8141 608.042 22.3465C611.419 24.2375 614.484 25.9539 617.869 27.8694ZM625.16 39.2546C617.625 35.0175 610.095 30.7666 602.541 26.5663C601.858 26.1862 601.013 26.1308 600.242 25.9247C600.134 26.2758 600.025 26.627 599.916 26.9782C601.555 27.9138 603.19 28.8578 604.834 29.7837C611.27 33.4081 617.702 37.0403 624.159 40.6202C624.636 40.8847 625.308 40.7579 625.889 40.813C625.746 40.3727 625.603 39.9325 625.16 39.2546ZM609.946 35.7809C607.311 34.2934 604.696 32.764 602.025 31.3539C601.494 31.0736 600.747 31.2505 600.099 31.2165C600.506 31.761 600.806 32.5106 601.336 32.8181C606.282 35.6884 611.257 38.5035 616.26 41.2623C616.688 41.4987 617.373 41.2154 617.939 41.1735C617.652 40.7208 617.462 40.0884 617.061 39.845C614.831 38.4911 612.55 37.2316 609.946 35.7809Z" fill="#020202"/>
<path d="M655.654 54.9209C657.414 55.9257 656.145 56.7701 655.44 57.4462C654.383 58.4588 653.185 59.3076 651.961 60.296C653.673 61.2759 655.233 62.1687 656.635 62.9705C656.027 65.3273 655.062 67.4649 655.041 69.6129C655.021 71.6893 655.972 73.7765 656.607 76.2946C654.544 78.0569 652.103 80.142 649.255 82.1733C649.158 81.408 649.311 80.5215 649.809 80.0199C651.011 78.8118 652.426 77.8431 653.645 76.6523C654.093 76.2152 654.547 75.368 654.457 74.805C654.056 72.3066 653.459 69.8435 652.928 67.3474C652.716 67.5098 652.31 67.7901 651.935 68.1101C638.719 79.3709 625.481 90.6034 612.324 101.942C610.736 103.31 609.573 103.427 607.793 102.408C597.198 96.3396 586.543 90.3888 575.898 84.4188C573.445 83.0435 571.574 83.3513 570.084 85.2651C568.082 87.8367 568.983 90.7802 572.384 92.6974C583.674 99.0624 595.049 105.268 606.209 111.878C609.224 113.665 611.227 113.526 613.458 110.994C613.85 110.55 614.808 110.664 615.505 110.521C614.337 111.792 613.096 112.998 612.016 114.349C610.309 116.485 608.85 115.108 607.243 114.202C595.457 107.551 583.656 100.928 571.851 94.3163C566.482 91.3093 565.969 86.7479 570.611 82.4844C572.48 80.7677 574.465 79.1921 576.541 77.4299C574.68 76.3207 572.971 75.3296 571.287 74.2944C566.21 71.1734 566.04 66.1753 570.874 62.5445C571.144 62.3417 571.387 62.099 571.816 62.0473C571.994 62.7935 571.997 63.3671 571.847 64.0323C570.658 65.5547 568.663 67.1171 568.819 68.3841C569.031 70.1107 570.567 72.2121 572.087 73.1069C578.943 77.1445 586.006 80.7862 592.969 84.6229C598.688 87.7739 604.37 90.9987 610.023 94.1652C624.718 81.6428 639.259 69.2628 653.765 56.8374C654.208 56.4581 654.289 55.6069 654.725 54.9724C655.159 54.953 655.407 54.937 655.654 54.9209Z" fill="#080808"/>
<path d="M569.993 44.38C570.293 44.5848 570.739 45.0599 570.875 44.9756C572.963 43.6799 574.845 44.3615 576.767 45.448C587.162 51.3238 597.597 57.1205 607.953 63.0709C609.591 64.0118 610.615 64.0012 612.088 62.7359C625.501 51.2104 638.984 39.7755 652.447 28.314C652.683 28.1133 652.918 27.9115 652.954 27.8806C653.517 30.7616 654.07 33.5963 654.363 36.6609C653.376 37.5615 652.65 38.2323 651.755 38.9585C650.771 39.7404 649.971 40.4847 649.142 41.1909C636.786 51.7113 624.398 62.1888 612.104 72.789C610.489 74.1811 609.383 74.2421 607.577 73.2071C598.101 67.774 588.534 62.5153 578.875 57.0627C577.502 56.2735 576.253 55.6178 574.919 54.8337C574.558 54.6146 574.282 54.5237 573.911 54.29C573.222 53.8624 572.627 53.5776 571.941 53.1518C571.091 52.3808 570.332 51.7508 569.542 50.9185C569.002 50.115 568.493 49.514 567.984 48.9129C567.929 48.7948 567.91 48.6706 568.149 48.6143C569.147 47.3584 570.74 46.371 569.98 44.3962C569.98 44.3962 569.995 44.3899 569.993 44.38Z" fill="#F9F9F9"/>
<path d="M615.503 110.511C614.808 110.664 613.85 110.55 613.458 110.994C611.227 113.527 609.224 113.665 606.209 111.878C595.049 105.268 583.675 99.0625 572.384 92.6975C568.984 90.7802 568.082 87.8368 570.084 85.2651C571.574 83.3514 573.445 83.0435 575.898 84.4189C586.543 90.3889 597.198 96.3396 607.794 102.408C609.573 103.427 610.736 103.31 612.324 101.942C625.481 90.6035 638.719 79.371 651.935 68.1101C652.31 67.7902 652.716 67.5098 652.928 67.3474C653.459 69.8436 654.056 72.3067 654.457 74.8051C654.547 75.3681 654.093 76.2152 653.645 76.6524C652.426 77.8431 651.011 78.8118 649.81 80.0199C649.311 80.5216 649.158 81.4081 649.086 82.2796C649.323 82.4396 649.319 82.4488 649.362 82.1807C648.593 82.0631 647.576 81.9359 647 82.4087C642.797 85.861 638.683 89.4346 634.54 92.9683C628.456 98.1569 622.358 103.327 616.313 108.566C615.855 108.963 615.773 109.844 615.516 110.499C615.516 110.499 615.5 110.501 615.503 110.511Z" fill="#F9F9F9"/>
<path d="M578.999 57.1961C588.535 62.5153 598.101 67.774 607.578 73.2071C609.383 74.2421 610.489 74.1811 612.104 72.789C624.398 62.1888 636.786 51.7113 649.142 41.1909C649.971 40.4847 650.772 39.7404 651.831 39.1272C652.258 39.3942 652.44 39.5479 652.622 39.7016C652.996 40.3487 653.242 41.1733 653.774 41.6039C654.725 42.3743 655.849 42.9074 657.079 43.6474C654.763 47.148 653.548 50.6228 655.634 54.7067C655.407 54.937 655.159 54.953 654.608 54.8049C653.881 52.3124 653.456 49.9841 653.011 47.5477C652.506 47.9668 651.87 48.4819 651.246 49.013C638.146 60.1622 625.033 71.2925 611.975 82.4958C610.677 83.61 609.686 83.7807 608.207 82.937C597.815 77.0111 587.403 71.1227 576.936 65.3462C575.462 64.5323 573.654 64.3925 572.001 63.9407C571.997 63.3671 571.994 62.7935 571.985 62.0048C573.294 60.63 574.608 59.4701 576.212 58.2415C576.669 58.1656 576.837 58.1584 577.187 58.1506C577.912 57.8319 578.456 57.514 578.999 57.1961Z" fill="black"/>
<path d="M615.64 110.678C615.773 109.844 615.856 108.963 616.313 108.566C622.358 103.327 628.456 98.1568 634.54 92.9683C638.683 89.4346 642.797 85.8609 647 82.4087C647.576 81.9358 648.593 82.0631 649.339 82.1989C638.396 91.7856 627.519 101.087 616.635 110.379C616.386 110.592 616.056 110.7 615.64 110.678Z" fill="#080808"/>
<path d="M578.875 57.0627C578.456 57.514 577.912 57.8319 577.165 57.9793C576.638 57.5711 576.315 57.3335 575.991 57.0958C575.294 56.7415 574.598 56.3871 574.055 55.792C574.474 55.3549 574.739 55.1584 575.004 54.962C576.253 55.6177 577.502 56.2735 578.875 57.0627Z" fill="#020202"/>
<path d="M569.573 51.1209C570.332 51.7508 571.091 52.3808 571.933 53.3453C572.011 54.0674 572.007 54.4549 572.004 54.8424C570.879 54.011 569.754 53.1795 568.797 52.068C569.168 51.5656 569.37 51.3433 569.573 51.1209Z" fill="#080808"/>
<path d="M569.823 44.234C570.741 46.371 569.147 47.3584 568.176 48.5232C568.544 46.9294 569.105 45.5007 569.823 44.234Z" fill="#020202"/>
<path d="M652.786 39.7289C652.44 39.5479 652.258 39.3942 652 39.0718C652.65 38.2323 653.377 37.5615 654.266 36.8494C654.453 37.1081 654.479 37.408 654.517 37.9332C654.004 38.6911 653.477 39.2237 652.786 39.7289Z" fill="#080808"/>
<path d="M569.542 50.9185C569.37 51.3433 569.168 51.5656 568.762 51.8799C568.229 51.0224 567.901 50.0729 567.778 49.0182C568.493 49.514 569.002 50.115 569.542 50.9185Z" fill="#020202"/>
<path d="M572.13 54.9545C572.008 54.4549 572.011 54.0674 572.024 53.4864C572.627 53.5777 573.222 53.8625 573.895 54.5005C573.89 55.1189 573.806 55.3842 573.723 55.6495C573.234 55.4552 572.745 55.2609 572.13 54.9545Z" fill="#020202"/>
<path d="M573.737 55.6387C573.806 55.3842 573.889 55.1189 573.989 54.6432C574.282 54.5237 574.558 54.6145 574.919 54.8337C574.739 55.1584 574.474 55.3548 573.967 55.604C573.725 55.6568 573.752 55.628 573.737 55.6387Z" fill="#080808"/>
<path d="M576.075 57.2649C576.315 57.3334 576.638 57.571 576.983 57.9799C576.837 58.1584 576.669 58.1655 576.376 58.1685C576.219 57.9209 576.189 57.6774 576.075 57.2649Z" fill="#080808"/>
<path d="M617.709 27.7698C614.484 25.9539 611.419 24.2375 608.042 22.3465C610.998 19.8141 613.731 17.4263 616.535 15.1339C616.855 14.8722 617.658 14.9618 618.083 15.198C624.845 18.9551 631.583 22.7604 638.319 26.5699C638.522 26.6845 638.641 26.9641 638.855 27.2394C636.329 29.4072 633.88 31.6617 631.253 33.6539C630.602 34.147 629.206 34.1545 628.441 33.7602C624.862 31.9163 621.383 29.8538 617.709 27.7698Z" fill="#F9F9F9"/>
<path d="M625.311 39.3735C625.603 39.9325 625.746 40.3728 625.889 40.813C625.308 40.7579 624.637 40.8847 624.16 40.6202C617.702 37.0403 611.27 33.4081 604.835 29.7837C603.191 28.8578 601.556 27.9139 599.917 26.9782C600.025 26.627 600.134 26.2759 600.243 25.9247C601.013 26.1308 601.858 26.1862 602.542 26.5663C610.096 30.7667 617.625 35.0175 625.311 39.3735Z" fill="#E1E1E1"/>
<path d="M610.117 35.8603C612.55 37.2316 614.832 38.4911 617.062 39.8451C617.463 40.0885 617.652 40.7208 617.94 41.1736C617.374 41.2155 616.689 41.4987 616.26 41.2624C611.258 38.5035 606.283 35.6884 601.337 32.8181C600.807 32.5106 600.506 31.761 600.1 31.2165C600.747 31.2505 601.494 31.0737 602.025 31.354C604.696 32.764 607.312 34.2934 610.117 35.8603Z" fill="#E0E0E0"/>
<path d="M571.847 64.0324C573.654 64.3925 575.462 64.5323 576.936 65.3462C587.403 71.1227 597.815 77.0111 608.207 82.937C609.686 83.7807 610.677 83.61 611.975 82.4958C625.033 71.2925 638.146 60.1622 651.245 49.013C651.869 48.4819 652.506 47.9667 653.011 47.5477C653.456 49.9841 653.88 52.3124 654.422 54.8082C654.289 55.6069 654.208 56.4581 653.765 56.8374C639.259 69.2628 624.718 81.6428 610.023 94.1651C604.37 90.9987 598.688 87.7739 592.969 84.6229C586.006 80.7862 578.942 77.1445 572.087 73.1069C570.567 72.2121 569.031 70.1107 568.819 68.3841C568.663 67.1171 570.658 65.5547 571.847 64.0324Z" fill="#F9F9F9"/>
<path d="M1119.49 44.3699C1119.87 43.8197 1120.16 43.1497 1120.64 42.7366C1135.05 30.4107 1149.49 18.1181 1163.9 5.79893C1166.72 3.38808 1169.63 2.94894 1172.9 4.80737C1183.65 10.9148 1194.44 16.9489 1205.2 23.0257C1205.62 23.2613 1205.96 23.6474 1206.48 24.0829C1203.7 28.1122 1203.85 32.2443 1206.13 36.3718C1205.46 36.9957 1204.91 37.5137 1204.18 37.8698C1203.98 37.408 1203.95 37.1081 1204.03 36.6196C1203.57 33.5963 1203.02 30.7616 1202.45 27.8806C1202.42 27.9115 1202.18 28.1133 1201.95 28.314C1188.48 39.7755 1175 51.2104 1161.59 62.7359C1160.12 64.0012 1159.09 64.0118 1157.45 63.0709C1147.1 57.1204 1136.66 51.3238 1126.27 45.448C1124.35 44.3614 1122.46 43.6799 1120.38 44.9756C1120.24 45.0598 1119.79 44.5848 1119.49 44.3699ZM1167.37 27.8694C1170.88 29.8538 1174.36 31.9163 1177.94 33.7602C1178.71 34.1544 1180.1 34.147 1180.75 33.6538C1183.38 31.6617 1185.83 29.4072 1188.36 27.2394C1188.14 26.964 1188.02 26.6845 1187.82 26.5699C1181.08 22.7604 1174.34 18.9551 1167.58 15.198C1167.16 14.9618 1166.35 14.8721 1166.03 15.1339C1163.23 17.4263 1160.5 19.8141 1157.54 22.3465C1160.92 24.2375 1163.98 25.9539 1167.37 27.8694ZM1174.66 39.2546C1167.12 35.0175 1159.6 30.7666 1152.04 26.5663C1151.36 26.1862 1150.51 26.1308 1149.74 25.9247C1149.63 26.2758 1149.52 26.627 1149.42 26.9782C1151.06 27.9138 1152.69 28.8578 1154.33 29.7837C1160.77 33.4081 1167.2 37.0403 1173.66 40.6202C1174.14 40.8847 1174.81 40.7579 1175.39 40.813C1175.25 40.3727 1175.1 39.9325 1174.66 39.2546ZM1159.45 35.7809C1156.81 34.2934 1154.2 32.764 1151.52 31.3539C1150.99 31.0736 1150.25 31.2505 1149.6 31.2165C1150.01 31.761 1150.31 32.5106 1150.84 32.8181C1155.78 35.6884 1160.76 38.5035 1165.76 41.2623C1166.19 41.4987 1166.87 41.2154 1167.44 41.1735C1167.15 40.7208 1166.96 40.0884 1166.56 39.845C1164.33 38.4911 1162.05 37.2316 1159.45 35.7809Z" fill="#020202"/>
<path d="M1205.15 54.9209C1206.91 55.9257 1205.65 56.7701 1204.94 57.4462C1203.88 58.4588 1202.69 59.3076 1201.46 60.296C1203.17 61.2759 1204.73 62.1687 1206.13 62.9705C1205.53 65.3273 1204.56 67.4649 1204.54 69.6129C1204.52 71.6893 1205.47 73.7765 1206.11 76.2946C1204.04 78.0569 1201.6 80.142 1198.76 82.1733C1198.66 81.408 1198.81 80.5215 1199.31 80.0199C1200.51 78.8118 1201.93 77.8431 1203.15 76.6523C1203.59 76.2152 1204.05 75.368 1203.96 74.805C1203.56 72.3066 1202.96 69.8435 1202.43 67.3474C1202.22 67.5098 1201.81 67.7901 1201.43 68.1101C1188.22 79.3709 1174.98 90.6034 1161.82 101.942C1160.24 103.31 1159.07 103.427 1157.29 102.408C1146.7 96.3396 1136.04 90.3888 1125.4 84.4188C1122.95 83.0435 1121.07 83.3513 1119.58 85.2651C1117.58 87.8367 1118.48 90.7802 1121.88 92.6974C1133.17 99.0624 1144.55 105.268 1155.71 111.878C1158.72 113.665 1160.73 113.526 1162.96 110.994C1163.35 110.55 1164.31 110.664 1165.01 110.521C1163.84 111.792 1162.6 112.998 1161.52 114.349C1159.81 116.485 1158.35 115.108 1156.74 114.202C1144.96 107.551 1133.16 100.928 1121.35 94.3163C1115.98 91.3093 1115.47 86.7479 1120.11 82.4844C1121.98 80.7677 1123.96 79.1921 1126.04 77.4299C1124.18 76.3207 1122.47 75.3296 1120.79 74.2944C1115.71 71.1734 1115.54 66.1753 1120.37 62.5445C1120.64 62.3417 1120.89 62.099 1121.32 62.0473C1121.49 62.7935 1121.5 63.3671 1121.35 64.0323C1120.16 65.5547 1118.16 67.1171 1118.32 68.3841C1118.53 70.1107 1120.07 72.2121 1121.59 73.1069C1128.44 77.1445 1135.51 80.7862 1142.47 84.6229C1148.19 87.7739 1153.87 90.9987 1159.52 94.1652C1174.22 81.6428 1188.76 69.2628 1203.26 56.8374C1203.71 56.4581 1203.79 55.6069 1204.23 54.9724C1204.66 54.953 1204.91 54.937 1205.15 54.9209Z" fill="#080808"/>
<path d="M1119.49 44.38C1119.79 44.5848 1120.24 45.0599 1120.38 44.9756C1122.46 43.6799 1124.35 44.3615 1126.27 45.448C1136.66 51.3238 1147.1 57.1205 1157.45 63.0709C1159.09 64.0118 1160.12 64.0012 1161.59 62.7359C1175 51.2104 1188.48 39.7755 1201.95 28.314C1202.18 28.1133 1202.42 27.9115 1202.45 27.8806C1203.02 30.7616 1203.57 33.5963 1203.86 36.6609C1202.88 37.5615 1202.15 38.2323 1201.25 38.9585C1200.27 39.7404 1199.47 40.4847 1198.64 41.1909C1186.29 51.7113 1173.9 62.1888 1161.6 72.789C1159.99 74.1811 1158.88 74.2421 1157.08 73.2071C1147.6 67.774 1138.03 62.5153 1128.37 57.0627C1127 56.2735 1125.75 55.6178 1124.42 54.8337C1124.06 54.6146 1123.78 54.5237 1123.41 54.29C1122.72 53.8624 1122.13 53.5776 1121.44 53.1518C1120.59 52.3808 1119.83 51.7508 1119.04 50.9185C1118.5 50.115 1117.99 49.514 1117.48 48.9129C1117.43 48.7948 1117.41 48.6706 1117.65 48.6143C1118.65 47.3584 1120.24 46.371 1119.48 44.3962C1119.48 44.3962 1119.5 44.3899 1119.49 44.38Z" fill="#F9F9F9"/>
<path d="M1165 110.511C1164.31 110.664 1163.35 110.55 1162.96 110.994C1160.73 113.527 1158.72 113.665 1155.71 111.878C1144.55 105.268 1133.17 99.0625 1121.88 92.6975C1118.48 90.7802 1117.58 87.8368 1119.58 85.2651C1121.07 83.3514 1122.95 83.0435 1125.4 84.4189C1136.04 90.3889 1146.7 96.3396 1157.29 102.408C1159.07 103.427 1160.24 103.31 1161.82 101.942C1174.98 90.6035 1188.22 79.371 1201.43 68.1101C1201.81 67.7902 1202.22 67.5098 1202.43 67.3474C1202.96 69.8436 1203.56 72.3067 1203.96 74.8051C1204.05 75.3681 1203.59 76.2152 1203.15 76.6524C1201.93 77.8431 1200.51 78.8118 1199.31 80.0199C1198.81 80.5216 1198.66 81.4081 1198.59 82.2796C1198.82 82.4396 1198.82 82.4488 1198.86 82.1807C1198.09 82.0631 1197.08 81.9359 1196.5 82.4087C1192.3 85.861 1188.18 89.4346 1184.04 92.9683C1177.96 98.1569 1171.86 103.327 1165.81 108.566C1165.36 108.963 1165.27 109.844 1165.02 110.499C1165.02 110.499 1165 110.501 1165 110.511Z" fill="#F9F9F9"/>
<path d="M1128.5 57.1961C1138.03 62.5153 1147.6 67.774 1157.08 73.2071C1158.88 74.2421 1159.99 74.1811 1161.6 72.789C1173.9 62.1888 1186.29 51.7113 1198.64 41.1909C1199.47 40.4847 1200.27 39.7404 1201.33 39.1272C1201.76 39.3942 1201.94 39.5479 1202.12 39.7016C1202.5 40.3487 1202.74 41.1733 1203.27 41.6039C1204.23 42.3743 1205.35 42.9074 1206.58 43.6474C1204.26 47.148 1203.05 50.6228 1205.13 54.7067C1204.91 54.937 1204.66 54.953 1204.11 54.8049C1203.38 52.3124 1202.96 49.9841 1202.51 47.5477C1202.01 47.9668 1201.37 48.4819 1200.75 49.013C1187.65 60.1622 1174.53 71.2925 1161.48 82.4958C1160.18 83.61 1159.19 83.7807 1157.71 82.937C1147.31 77.0111 1136.9 71.1227 1126.44 65.3462C1124.96 64.5323 1123.15 64.3925 1121.5 63.9407C1121.5 63.3671 1121.49 62.7935 1121.48 62.0048C1122.79 60.63 1124.11 59.4701 1125.71 58.2415C1126.17 58.1656 1126.34 58.1584 1126.69 58.1506C1127.41 57.8319 1127.96 57.514 1128.5 57.1961Z" fill="black"/>
<path d="M1165.14 110.678C1165.27 109.844 1165.36 108.963 1165.81 108.566C1171.86 103.327 1177.96 98.1568 1184.04 92.9683C1188.18 89.4346 1192.3 85.8609 1196.5 82.4087C1197.08 81.9358 1198.09 82.0631 1198.84 82.1989C1187.9 91.7856 1177.02 101.087 1166.13 110.379C1165.89 110.592 1165.56 110.7 1165.14 110.678Z" fill="#080808"/>
<path d="M1128.38 57.0627C1127.96 57.514 1127.41 57.8319 1126.66 57.9793C1126.14 57.5711 1125.81 57.3335 1125.49 57.0958C1124.79 56.7415 1124.1 56.3871 1123.55 55.792C1123.97 55.3549 1124.24 55.1584 1124.5 54.962C1125.75 55.6177 1127 56.2735 1128.38 57.0627Z" fill="#020202"/>
<path d="M1119.07 51.1209C1119.83 51.7508 1120.59 52.3808 1121.43 53.3453C1121.51 54.0674 1121.51 54.4549 1121.5 54.8424C1120.38 54.011 1119.25 53.1795 1118.3 52.068C1118.67 51.5656 1118.87 51.3433 1119.07 51.1209Z" fill="#080808"/>
<path d="M1119.32 44.234C1120.24 46.371 1118.65 47.3584 1117.68 48.5232C1118.04 46.9294 1118.6 45.5007 1119.32 44.234Z" fill="#020202"/>
<path d="M1202.29 39.7289C1201.94 39.5479 1201.76 39.3942 1201.5 39.0718C1202.15 38.2323 1202.88 37.5615 1203.77 36.8494C1203.95 37.1081 1203.98 37.408 1204.02 37.9332C1203.5 38.6911 1202.98 39.2237 1202.29 39.7289Z" fill="#080808"/>
<path d="M1119.04 50.9185C1118.87 51.3433 1118.67 51.5656 1118.26 51.8799C1117.73 51.0224 1117.4 50.0729 1117.28 49.0182C1117.99 49.514 1118.5 50.115 1119.04 50.9185Z" fill="#020202"/>
<path d="M1121.63 54.9545C1121.51 54.4549 1121.51 54.0674 1121.52 53.4864C1122.13 53.5777 1122.72 53.8625 1123.39 54.5005C1123.39 55.1189 1123.31 55.3842 1123.22 55.6495C1122.73 55.4552 1122.24 55.2609 1121.63 54.9545Z" fill="#020202"/>
<path d="M1123.24 55.6387C1123.31 55.3842 1123.39 55.1189 1123.49 54.6432C1123.78 54.5237 1124.06 54.6145 1124.42 54.8337C1124.24 55.1584 1123.97 55.3548 1123.47 55.604C1123.22 55.6568 1123.25 55.628 1123.24 55.6387Z" fill="#080808"/>
<path d="M1125.57 57.2649C1125.81 57.3334 1126.14 57.571 1126.48 57.9799C1126.34 58.1584 1126.17 58.1655 1125.88 58.1685C1125.72 57.9209 1125.69 57.6774 1125.57 57.2649Z" fill="#080808"/>
<path d="M1167.21 27.7698C1163.98 25.9539 1160.92 24.2375 1157.54 22.3465C1160.5 19.8141 1163.23 17.4263 1166.03 15.1339C1166.35 14.8722 1167.16 14.9618 1167.58 15.198C1174.34 18.9551 1181.08 22.7604 1187.82 26.5699C1188.02 26.6845 1188.14 26.9641 1188.36 27.2394C1185.83 29.4072 1183.38 31.6617 1180.75 33.6539C1180.1 34.147 1178.71 34.1545 1177.94 33.7602C1174.36 31.9163 1170.88 29.8538 1167.21 27.7698Z" fill="#F9F9F9"/>
<path d="M1174.81 39.3735C1175.1 39.9325 1175.25 40.3728 1175.39 40.813C1174.81 40.7579 1174.14 40.8847 1173.66 40.6202C1167.2 37.0403 1160.77 33.4081 1154.33 29.7837C1152.69 28.8578 1151.06 27.9139 1149.42 26.9782C1149.53 26.627 1149.63 26.2759 1149.74 25.9247C1150.51 26.1308 1151.36 26.1862 1152.04 26.5663C1159.6 30.7667 1167.12 35.0175 1174.81 39.3735Z" fill="#E1E1E1"/>
<path d="M1159.62 35.8603C1162.05 37.2316 1164.33 38.4911 1166.56 39.8451C1166.96 40.0885 1167.15 40.7208 1167.44 41.1736C1166.87 41.2155 1166.19 41.4987 1165.76 41.2624C1160.76 38.5035 1155.78 35.6884 1150.84 32.8181C1150.31 32.5106 1150.01 31.761 1149.6 31.2165C1150.25 31.2505 1150.99 31.0737 1151.53 31.354C1154.2 32.764 1156.81 34.2934 1159.62 35.8603Z" fill="#E0E0E0"/>
<path d="M1121.35 64.0324C1123.15 64.3925 1124.96 64.5323 1126.44 65.3462C1136.9 71.1227 1147.31 77.0111 1157.71 82.937C1159.19 83.7807 1160.18 83.61 1161.48 82.4958C1174.53 71.2925 1187.65 60.1622 1200.75 49.013C1201.37 48.4819 1202.01 47.9667 1202.51 47.5477C1202.96 49.9841 1203.38 52.3124 1203.92 54.8082C1203.79 55.6069 1203.71 56.4581 1203.26 56.8374C1188.76 69.2628 1174.22 81.6428 1159.52 94.1651C1153.87 90.9987 1148.19 87.7739 1142.47 84.6229C1135.51 80.7862 1128.44 77.1445 1121.59 73.1069C1120.07 72.2121 1118.53 70.1107 1118.32 68.3841C1118.16 67.1171 1120.16 65.5547 1121.35 64.0324Z" fill="#F9F9F9"/>
</svg>
