<svg width="30" height="30" viewBox="0 0 30 30" fill="none" xmlns="http://www.w3.org/2000/svg">
<path d="M15 27.5L11.7188 22.5625H4.58344C4.01052 22.5625 3.52 22.3585 3.11188 21.9506C2.70396 21.5425 2.5 21.052 2.5 20.4791V4.58344C2.5 4.01052 2.70396 3.52 3.11188 3.11188C3.52 2.70396 4.01052 2.5 4.58344 2.5H25.4166C25.9895 2.5 26.48 2.70396 26.8881 3.11188C27.296 3.52 27.5 4.01052 27.5 4.58344V20.4791C27.5 21.052 27.296 21.5425 26.8881 21.9506C26.48 22.3585 25.9895 22.5625 25.4166 22.5625H18.2813L15 27.5ZM15 23.75L17.1666 20.4791H25.4166V4.58344H4.58344V20.4791H12.8334L15 23.75Z" fill="black"/>
</svg>
