<svg width="40" height="40" viewBox="0 0 40 40" fill="none" xmlns="http://www.w3.org/2000/svg">
<path d="M36.5845 21.8063C36.2825 21.4102 35.8768 21.3624 35.4489 21.3549C34.3433 21.3356 33.2395 21.4097 32.1392 21.1623C29.8813 20.6547 28.5093 19.3578 28.0192 17.217C27.9828 17.0581 27.991 16.8835 27.8259 16.7497C27.5875 17.0371 27.8349 17.4285 27.513 17.7866C25.9726 16.4956 24.2879 15.4244 22.2022 15.0633C22.3353 14.6319 22.7144 14.4848 22.8867 14.0913C22.6536 14.2101 22.4871 14.2696 22.3521 14.3678C21.1654 15.2307 19.7894 15.3849 18.3553 15.3555C16.8697 15.325 15.3841 15.3103 13.9016 15.4569C13.4199 15.5046 12.9557 15.3889 12.5292 15.1659C11.9361 14.8559 11.6839 14.1492 11.9735 13.6235C12.2453 13.1302 13.0279 12.8962 13.5733 13.2664C14.2207 13.7059 14.8552 13.6743 15.5453 13.491C16.4021 13.2634 17.2816 13.1039 18.0871 12.7236C18.6566 12.4548 19.0797 12.0608 19.3316 11.4453C18.9249 11.5289 18.8232 11.9568 18.4699 12.0081C18.2348 11.8689 18.2654 11.6334 18.1912 11.448C17.8324 10.5523 17.3394 10.2993 16.343 10.5204C15.2257 10.7683 14.4515 10.5133 13.9594 9.74766C13.7594 9.43648 13.6772 9.13972 13.9157 8.80684C14.0991 8.55081 14.1488 8.24993 14.1243 7.94399C14.0218 6.66052 14.7266 5.8197 15.8764 5.33405C16.5203 5.06209 16.6911 4.65551 16.7215 4.0792C16.7398 3.73127 16.683 3.28528 17.0438 3.11461C17.4553 2.91998 17.7675 3.30084 18.0766 3.51852C18.2657 3.65169 18.477 3.79735 18.5856 3.98535C19.2079 5.06261 20.2989 5.72439 21.1339 6.61092C21.5301 7.03164 22.0028 7.30861 22.5811 7.44182C22.9468 7.52607 23.3171 7.62791 23.6213 7.84268C24.0768 8.16425 24.5771 8.24761 25.1306 8.22518C26.8365 8.15602 28.4877 8.3899 30.0516 9.07304C31.7479 9.81397 33.1063 10.9327 34.1936 12.3606C34.6397 12.9464 34.7366 12.9604 35.4091 12.6017C36.6677 11.9302 37.2415 10.5316 36.8841 8.98207C36.6328 7.89251 36.0843 6.9075 35.6369 5.8882C35.0568 4.56666 34.6797 3.22612 35.0494 1.78731C35.1778 1.28761 35.4187 0.837182 35.7758 0.449339C36.1909 -0.00163554 36.7948 -0.132237 37.206 0.144928C37.7099 0.484525 37.6528 0.944605 37.4519 1.40651C37.2646 1.8372 36.9874 2.2268 36.8902 2.69987C36.7061 3.59512 36.9973 4.40165 37.337 5.20728C37.8345 6.38717 38.4704 7.51195 38.7361 8.78113C39.2321 11.1498 38.2806 13.2598 36.0474 14.4588C35.5066 14.7492 35.2717 15.0225 35.4234 15.6432C35.5455 16.143 35.46 16.6879 35.4697 17.2128C35.4861 18.1048 35.8635 18.6024 36.7547 18.8937C36.9787 18.9668 37.2118 19.0159 37.442 19.0712C37.901 19.1816 38.2178 19.4281 38.3373 19.8777C38.6318 20.9856 38.8714 22.104 39.0244 23.237C39.0693 23.57 39.0628 23.9116 38.941 24.2389C38.7439 24.7686 38.403 25.1011 37.7568 25.0612C37.4411 25.0416 37.1227 25.0644 36.8057 25.0584C36.5159 25.0528 36.1733 25.123 36.0434 24.7742C35.9045 24.4013 36.0549 24.0821 36.3156 23.7926C36.5267 23.5581 37.0421 23.6495 37.0494 23.2267C37.058 22.7298 36.8337 22.2816 36.5845 21.8063ZM15.9798 7.89656C16.0677 7.75532 16.2155 7.61007 16.0323 7.45321C15.9219 7.35861 15.7615 7.3613 15.6472 7.44708C15.4129 7.6228 15.325 7.8496 15.4337 8.11839C15.6653 8.18421 15.7993 8.07695 15.9798 7.89656Z" fill="black"/>
<path d="M11.9975 25.3765C19.0739 25.3776 26.0909 25.3788 33.1079 25.3794C35.0883 25.3795 37.0688 25.3753 39.0493 25.3774C40.0098 25.3785 40.0097 25.383 39.9977 26.2601C39.9959 26.3914 39.9892 26.5229 39.9954 26.6539C40.0104 26.9706 39.8365 27.0932 39.5222 27.0828C39.4232 27.0795 39.324 27.084 39.2249 27.084C26.5188 27.0794 13.8128 27.0749 1.10671 27.0694C0.144077 27.069 -0.212448 26.5528 0.123497 25.6623C0.262356 25.2943 0.6 25.3779 0.878457 25.377C3.43508 25.3686 5.99174 25.3701 8.54839 25.3704C9.67826 25.3705 10.8081 25.3743 11.9975 25.3765Z" fill="black"/>
<path d="M13.3896 21.6928C13.6359 22.4123 13.8521 23.0944 14.0994 23.7663C14.2259 24.1098 14.1241 24.3056 13.7699 24.4069C13.751 24.4123 13.7334 24.4219 13.7145 24.4271C11.4244 25.0494 11.9386 25.3383 11.2401 23.2613C10.5198 21.1193 9.84897 18.9618 8.99648 16.8613C8.9712 16.799 8.93732 16.7399 8.82491 16.6921C8.82491 17.4895 8.82522 18.287 8.82485 19.0845C8.82403 20.828 8.80331 22.5718 8.83352 24.3148C8.84279 24.8495 8.63931 25.0112 8.10783 24.9715C7.65497 24.9376 7.19665 24.9544 6.74143 24.9685C6.39322 24.9793 6.24512 24.8595 6.24602 24.5126C6.25454 21.2319 6.25564 17.9511 6.24512 14.6704C6.24384 14.2714 6.44354 14.1345 6.81717 14.1277C7.09444 14.1228 7.37179 14.1201 7.64911 14.1193C8.71769 14.1161 8.72736 14.1156 8.82888 15.0985C8.87084 15.5047 9.08405 15.6184 9.46973 15.5178C9.83239 15.4232 10.1977 15.3345 10.553 15.2186C11.0096 15.0696 11.2277 15.2084 11.3706 15.6497C12.0203 17.6554 12.7022 19.6517 13.3896 21.6928ZM7.5309 15.3887C7.32416 15.4309 6.97275 15.2749 6.96409 15.6001C6.95632 15.8917 7.29327 15.8496 7.51802 15.8618C7.69278 15.8713 7.8698 15.8595 8.04468 15.845C8.15141 15.8361 8.22169 15.7678 8.2335 15.6644C8.2456 15.5584 8.17795 15.4722 8.08561 15.4484C7.93787 15.4102 7.77994 15.4074 7.5309 15.3887ZM10.665 17.1814C10.8571 17.0987 11.1476 17.1454 11.1997 16.8434C10.6463 16.7528 9.9542 16.9905 9.71272 17.3626C10.0366 17.4207 10.3052 17.2915 10.665 17.1814ZM11.7941 23.2252C12.3334 23.2888 12.7565 23.0851 13.1162 22.7324C12.6396 22.7999 12.1581 22.8476 11.7941 23.2252Z" fill="black"/>
<path d="M0.108758 22.3276C0.109262 19.3857 0.107787 16.5 0.108816 13.6144C0.10909 12.8438 0.112605 12.8435 0.944826 12.8416C1.3609 12.8406 1.77799 12.858 2.19279 12.8361C2.68421 12.8101 2.86553 13.0212 2.86196 13.4691C2.85181 14.7437 2.86249 16.0185 2.86317 17.2933C2.86442 19.6554 2.85408 22.0176 2.87372 24.3795C2.87758 24.8437 2.74217 25.02 2.22964 24.9726C1.71939 24.9253 1.19895 24.9393 0.685767 24.9692C0.230586 24.9957 0.0869099 24.8036 0.0955814 24.4081C0.110375 23.7336 0.104759 23.0586 0.108758 22.3276ZM1.74691 23.0862C1.80748 23.0445 1.91277 23.0096 1.92131 22.9599C1.97456 22.6497 1.71252 22.695 1.53643 22.7015C1.34565 22.7084 1.04191 22.5876 1.01555 22.8952C0.99553 23.1289 1.25318 23.0852 1.41998 23.1007C1.49768 23.1079 1.57704 23.099 1.74691 23.0862Z" fill="black"/>
<path d="M20.3251 16.5768C21.7129 16.5766 23.0414 16.5889 24.3694 16.5696C24.8885 16.562 25.0957 16.736 25.0278 17.2365C24.9852 17.5502 25.0161 17.8731 25.0179 18.1919C25.0189 18.3712 25.0724 18.5063 25.2766 18.5868C26.0747 18.9014 25.5916 19.5308 25.6092 20.0086C25.6259 20.4633 25.1498 20.3193 24.8674 20.3204C22.5281 20.3292 20.1887 20.3191 17.8493 20.3216C17.4108 20.3221 17.0722 20.2824 17.0751 19.7301C17.0799 18.8163 17.1679 18.6304 17.8245 18.6171C18.6757 18.5999 19.5275 18.6129 20.3791 18.6129C20.3795 18.5505 20.38 18.4881 20.3805 18.4257C19.1197 18.4257 17.8589 18.4263 16.5981 18.4254C15.7608 18.4248 15.7608 18.4238 15.7605 17.6114C15.7601 16.5895 15.7601 16.5848 16.816 16.5793C17.9658 16.5733 19.1157 16.5771 20.3251 16.5768Z" fill="black"/>
<path d="M5.85369 19.7385C5.85408 21.3324 5.8389 22.8701 5.86384 24.4073C5.87149 24.8791 5.69233 25.0499 5.20857 25.0224C4.77415 24.9977 4.33511 24.9925 3.90143 25.0221C3.33926 25.0606 3.18914 24.8154 3.19576 24.3212C3.23171 21.6408 3.24435 18.96 3.26353 16.2794C3.26769 15.6982 3.28263 15.1163 3.26099 14.5358C3.24544 14.1189 3.43368 13.9593 3.8591 13.9721C4.31438 13.9858 4.77131 13.9879 5.22614 13.9676C5.68571 13.947 5.86136 14.1277 5.85778 14.5634C5.8438 16.2696 5.85299 17.976 5.85369 19.7385ZM4.66118 23.0809C4.83732 23.0537 5.06725 23.1502 5.17282 22.8182C4.76397 22.6399 4.37802 22.6612 3.9548 22.7972C4.07752 23.1866 4.35955 23.0398 4.66118 23.0809Z" fill="black"/>
<path d="M17.8134 12.3912C16.787 12.923 15.6975 13.1246 14.6118 13.3285C14.2228 13.4016 13.8824 13.1987 13.541 13.0498C12.7555 12.7071 12.0834 12.8201 11.7571 13.349C11.42 13.8952 11.6327 14.7922 12.2126 15.2223C12.6001 15.5098 13.0476 15.6746 13.5399 15.6137C13.9302 15.5654 14.1233 15.7272 14.278 16.0304C15.027 17.498 15.78 18.9638 16.5447 20.4242C16.7396 20.7962 16.6434 21.0146 16.2497 21.1727C14.4151 21.9096 14.8923 22.0184 14.0879 20.4803C12.8322 18.0791 11.6186 15.6581 10.396 13.2414C10.0153 12.4889 10.0338 12.4676 10.7966 12.0797C10.9188 12.0176 11.0596 11.9752 11.16 11.8902C11.7374 11.4016 12.303 11.4128 12.9249 11.8393C13.5522 12.2697 14.2286 12.01 14.8691 11.8438C15.498 11.6807 16.1051 11.4435 16.7279 11.257C17.0115 11.1722 17.3571 10.8731 17.5924 11.174C17.8466 11.4989 18.0865 11.906 17.8134 12.3912ZM15.1771 20.3103C15.3285 20.2157 15.5629 20.2194 15.6284 19.9079C15.2591 19.9657 14.959 20.0288 14.7423 20.3146C14.8861 20.4322 14.9958 20.3684 15.1771 20.3103Z" fill="black"/>
<path d="M20.9201 22.7749C19.81 22.7807 18.759 22.7707 17.7091 22.7989C17.1861 22.813 16.9319 22.601 16.8869 22.127C16.8745 21.9963 16.8635 21.8652 16.8606 21.7342C16.8355 20.5962 16.946 20.4935 18.1505 20.489C20.5085 20.4803 22.8667 20.5232 25.2242 20.4325C25.5742 20.419 25.9275 20.4809 26.3226 20.5113C26.2203 21.1759 26.1041 21.7959 26.2917 22.4285C26.3843 22.7409 26.0522 22.7245 25.8544 22.7298C24.9632 22.7541 24.0715 22.7622 23.1799 22.7698C22.4465 22.7761 21.713 22.7735 20.9201 22.7749Z" fill="black"/>
<path d="M15.9373 25.0616C15.3668 25.1261 15.1645 24.9564 15.1304 24.4256C15.0278 22.8291 15.0333 22.8715 16.6994 22.915C19.032 22.976 21.3683 22.9096 23.7031 22.8978C23.901 22.8968 24.0992 22.9027 24.2969 22.8956C24.7122 22.8808 24.8914 23.0373 24.9009 23.4578C24.937 25.0596 24.95 25.0572 23.2405 25.057C20.8252 25.0567 18.41 25.0598 15.9373 25.0616ZM16.3734 23.411C16.0691 23.8058 16.1664 24.1675 16.4528 24.5157C16.6245 24.1439 16.7588 23.7762 16.3734 23.411Z" fill="black"/>
<path d="M26.0837 18.7471C25.9972 18.2168 25.8271 17.7338 25.9561 17.2393C26.2954 17.1943 26.4537 17.3855 26.6207 17.5294C27.1029 17.945 27.5735 18.3715 27.9861 18.854C28.8252 19.8353 29.7203 20.7585 31.0223 21.2054C31.5505 21.3867 31.5482 21.763 31.307 22.1033C30.5304 23.1985 29.6087 24.2002 28.4234 24.8906C27.6865 25.3199 26.7623 25.06 25.9218 25.0438C25.6924 25.0394 25.6804 24.7819 25.697 24.5885C25.743 24.0503 26.143 23.6121 26.7779 23.5655C27.7514 23.4942 28.0555 22.779 28.4313 22.1362C28.6294 21.7974 28.3219 21.5797 28.0796 21.3893C27.1817 20.6839 26.4286 19.8828 26.0837 18.7471Z" fill="black"/>
<path d="M15.7719 5.1915C15.0572 5.57064 15.0293 5.57017 14.6468 4.94909C14.4828 4.68275 14.2749 4.42441 14.2632 4.02237C15.0867 3.97247 15.6985 4.34646 16.3244 4.68098C16.2532 5.00246 16.014 5.07019 15.7719 5.1915Z" fill="black"/>
</svg>
