<svg width="326" height="350" viewBox="0 0 326 350" fill="none" xmlns="http://www.w3.org/2000/svg">
<path d="M284.811 179.324C282.46 176.066 279.302 175.673 275.971 175.612C267.364 175.453 258.77 176.062 250.205 174.028C232.627 169.853 221.946 159.188 218.13 141.583C217.847 140.277 217.911 138.841 216.626 137.741C214.77 140.104 216.696 143.322 214.19 146.268C202.198 135.651 189.083 126.842 172.845 123.873C173.882 120.325 176.833 119.116 178.174 115.88C176.359 116.857 175.063 117.346 174.012 118.153C164.774 125.249 154.062 126.517 142.898 126.275C131.332 126.025 119.767 125.904 108.225 127.109C104.475 127.501 100.862 126.55 97.5411 124.716C92.9241 122.167 90.9609 116.355 93.2155 112.032C95.3311 107.976 101.424 106.051 105.669 109.096C110.71 112.71 115.649 112.45 121.021 110.943C127.692 109.071 134.539 107.759 140.81 104.632C145.243 102.422 148.537 99.1816 150.498 94.1198C147.332 94.8075 146.54 98.3261 143.79 98.7482C141.96 97.6037 142.198 95.6665 141.62 94.1426C138.826 86.7764 134.988 84.6956 127.231 86.514C118.533 88.553 112.506 86.4554 108.676 80.1596C107.118 77.6006 106.479 75.1602 108.335 72.4228C109.763 70.3173 110.15 67.843 109.96 65.3271C109.161 54.7726 114.648 47.8581 123.599 43.8644C128.612 41.628 129.942 38.2844 130.178 33.5452C130.321 30.684 129.879 27.0164 132.688 25.6129C135.891 24.0123 138.322 27.1443 140.728 28.9345C142.2 30.0296 143.845 31.2274 144.69 32.7734C149.535 41.6322 158.028 47.0744 164.528 54.3647C167.613 57.8244 171.293 60.1021 175.795 61.1976C178.642 61.8904 181.525 62.7278 183.893 64.494C187.439 67.1384 191.334 67.824 195.643 67.6395C208.923 67.0708 221.778 68.994 233.953 74.6119C247.159 80.7049 257.734 89.9045 266.199 101.647C269.671 106.464 270.425 106.58 275.661 103.629C285.459 98.1073 289.926 86.6062 287.144 73.8638C285.187 64.9038 280.917 56.8036 277.434 48.4214C272.918 37.5538 269.983 26.5299 272.861 14.6979C273.86 10.5886 275.736 6.88454 278.515 3.69512C281.748 -0.0134498 286.449 -1.08745 289.65 1.19181C293.572 3.98448 293.128 7.76793 291.564 11.5664C290.106 15.1081 287.948 18.312 287.191 22.2023C285.758 29.5644 288.025 36.1968 290.67 42.8219C294.542 52.5247 299.493 61.7743 301.562 72.2113C305.423 91.69 298.015 109.042 280.63 118.902C276.42 121.289 274.591 123.537 275.772 128.641C276.723 132.752 276.057 137.233 276.133 141.549C276.261 148.885 279.198 152.977 286.137 155.371C287.88 155.973 289.695 156.377 291.487 156.832C295.06 157.739 297.527 159.766 298.457 163.463C300.75 172.574 302.615 181.771 303.806 191.089C304.156 193.827 304.105 196.636 303.157 199.328C301.622 203.684 298.968 206.418 293.937 206.09C291.48 205.929 289.001 206.116 286.534 206.067C284.278 206.021 281.61 206.598 280.599 203.73C279.517 200.663 280.688 198.038 282.718 195.658C284.362 193.73 288.374 194.481 288.431 191.004C288.498 186.918 286.751 183.232 284.811 179.324ZM124.405 64.9371C125.088 63.7756 126.239 62.5811 124.813 61.2912C123.954 60.5133 122.705 60.5354 121.815 61.2408C119.991 62.6859 119.307 64.551 120.153 66.7613C121.956 67.3026 122.999 66.4206 124.405 64.9371Z" fill="black"/>
<path d="M93.4001 208.683C148.49 208.692 203.117 208.702 257.744 208.707C273.162 208.708 288.58 208.673 303.998 208.691C311.475 208.699 311.475 208.736 311.381 215.949C311.367 217.029 311.315 218.111 311.363 219.188C311.48 221.792 310.126 222.8 307.68 222.715C306.909 222.688 306.137 222.725 305.365 222.725C206.449 222.687 107.532 222.65 8.61571 222.605C1.12163 222.601 -1.65391 218.357 0.961421 211.034C2.04244 208.007 4.67099 208.694 6.83877 208.687C26.742 208.618 46.6456 208.631 66.5491 208.633C75.3451 208.634 84.141 208.665 93.4001 208.683Z" fill="black"/>
<path d="M104.238 178.39C106.155 184.306 107.838 189.916 109.764 195.441C110.749 198.266 109.956 199.877 107.199 200.709C107.052 200.754 106.915 200.833 106.767 200.875C88.9388 205.993 92.9417 208.369 87.5042 191.288C81.8967 173.674 76.6744 155.932 70.0377 138.658C69.8409 138.146 69.5771 137.66 68.7021 137.267C68.7021 143.825 68.7045 150.383 68.7016 156.941C68.6952 171.278 68.5339 185.618 68.7691 199.952C68.8413 204.349 67.2572 205.679 63.1196 205.352C59.5941 205.073 56.0261 205.212 52.4822 205.328C49.7714 205.416 48.6185 204.431 48.6255 201.579C48.6917 174.6 48.7004 147.621 48.6185 120.642C48.6085 117.36 50.1631 116.234 53.0718 116.179C55.2304 116.138 57.3895 116.116 59.5485 116.109C67.8673 116.083 67.9426 116.08 68.733 124.162C69.0596 127.502 70.7194 128.437 73.7219 127.61C76.5452 126.832 79.3896 126.102 82.155 125.149C85.7097 123.925 87.4077 125.066 88.5205 128.695C93.578 145.188 98.8868 161.605 104.238 178.39ZM58.6282 126.548C57.0187 126.896 54.283 125.613 54.2156 128.287C54.1551 130.685 56.7783 130.339 58.5279 130.439C59.8884 130.517 61.2666 130.42 62.628 130.301C63.4588 130.228 64.006 129.666 64.0979 128.816C64.1921 127.944 63.6655 127.235 62.9466 127.039C61.7965 126.725 60.5669 126.702 58.6282 126.548ZM83.0271 141.29C84.5227 140.61 86.784 140.995 87.19 138.511C82.8818 137.766 77.4935 139.721 75.6136 142.78C78.1348 143.259 80.226 142.196 83.0271 141.29ZM91.817 190.992C96.0154 191.514 99.3092 189.84 102.11 186.939C98.3993 187.494 94.6505 187.887 91.817 190.992Z" fill="black"/>
<path d="M0.848839 183.61C0.852768 159.418 0.841285 135.688 0.849291 111.958C0.851425 105.621 0.878791 105.619 7.35761 105.602C10.5967 105.594 13.8438 105.737 17.073 105.557C20.8987 105.343 22.3103 107.079 22.2825 110.763C22.2034 121.245 22.2866 131.728 22.2919 142.211C22.3016 161.636 22.2211 181.061 22.374 200.485C22.4041 204.302 21.3499 205.751 17.3598 205.361C13.3876 204.973 9.33598 205.088 5.34084 205.334C1.79727 205.552 0.678754 203.971 0.746262 200.719C0.86143 195.172 0.817713 189.622 0.848839 183.61ZM13.6018 189.849C14.0733 189.506 14.893 189.219 14.9595 188.81C15.3741 186.26 13.3341 186.632 11.9632 186.685C10.478 186.742 8.11337 185.749 7.90824 188.278C7.75235 190.2 9.75815 189.84 11.0567 189.968C11.6616 190.027 12.2794 189.954 13.6018 189.849Z" fill="black"/>
<path d="M158.23 136.319C169.034 136.317 179.376 136.419 189.714 136.259C193.756 136.197 195.369 137.628 194.84 141.743C194.509 144.324 194.749 146.979 194.763 149.601C194.771 151.075 195.187 152.186 196.777 152.848C202.991 155.435 199.229 160.611 199.366 164.54C199.497 168.279 195.79 167.095 193.592 167.104C175.38 167.176 157.168 167.094 138.956 167.114C135.542 167.118 132.906 166.792 132.929 162.25C132.966 154.735 133.651 153.207 138.763 153.098C145.389 152.956 152.021 153.063 158.65 153.063C158.654 152.55 158.657 152.036 158.661 151.523C148.846 151.523 139.031 151.528 129.216 151.521C122.697 151.516 122.697 151.508 122.695 144.827C122.691 136.423 122.691 136.385 130.912 136.34C139.863 136.29 148.815 136.321 158.23 136.319Z" fill="black"/>
<path d="M45.5707 162.319C45.5737 175.426 45.4556 188.072 45.6497 200.713C45.7093 204.593 44.3145 205.997 40.5485 205.771C37.1665 205.567 33.7486 205.525 30.3724 205.769C25.9959 206.085 24.8272 204.068 24.8788 200.005C25.1586 177.962 25.2571 155.917 25.4064 133.873C25.4388 129.093 25.5551 124.308 25.3866 119.535C25.2655 116.106 26.731 114.793 30.0429 114.899C33.5873 115.012 37.1444 115.029 40.6853 114.862C44.263 114.693 45.6304 116.178 45.6026 119.762C45.4937 133.793 45.5652 147.825 45.5707 162.319ZM36.2871 189.805C37.6583 189.582 39.4483 190.375 40.2702 187.645C37.0873 186.179 34.0826 186.354 30.7879 187.472C31.7432 190.675 33.9389 189.467 36.2871 189.805Z" fill="black"/>
<path d="M138.677 101.898C130.687 106.272 122.205 107.93 113.753 109.606C110.724 110.207 108.075 108.539 105.417 107.314C99.3018 104.497 94.0693 105.426 91.529 109.775C88.9053 114.267 90.561 121.643 95.0751 125.18C98.092 127.544 101.576 128.899 105.409 128.398C108.447 128.001 109.95 129.332 111.154 131.825C116.985 143.894 122.848 155.949 128.801 167.958C130.318 171.017 129.569 172.813 126.504 174.113C112.222 180.173 115.936 181.068 109.675 168.419C99.8988 148.673 90.4509 128.764 80.9332 108.89C77.9696 102.702 78.1135 102.527 84.052 99.3374C85.003 98.8267 86.0989 98.4781 86.8811 97.7788C91.3759 93.761 95.7793 93.8525 100.62 97.3604C105.504 100.899 110.77 98.7636 115.756 97.3974C120.652 96.0558 125.378 94.105 130.227 92.572C132.434 91.8741 135.125 89.4146 136.957 91.8889C138.936 94.561 140.803 97.9087 138.677 101.898ZM118.153 167.021C119.332 166.243 121.157 166.273 121.667 163.712C118.792 164.188 116.456 164.707 114.769 167.056C115.889 168.023 116.742 167.499 118.153 167.021Z" fill="black"/>
<path d="M162.861 187.289C154.219 187.337 146.037 187.255 137.864 187.486C133.792 187.602 131.813 185.859 131.463 181.961C131.366 180.886 131.281 179.808 131.258 178.731C131.062 169.373 131.923 168.528 141.3 168.491C159.656 168.419 178.016 168.772 196.369 168.026C199.093 167.915 201.844 168.424 204.919 168.674C204.123 174.14 203.218 179.238 204.679 184.44C205.4 187.009 202.814 186.874 201.274 186.918C194.337 187.118 187.394 187.184 180.453 187.247C174.744 187.298 169.034 187.277 162.861 187.289Z" fill="black"/>
<path d="M124.071 206.094C119.63 206.624 118.055 205.228 117.79 200.863C116.991 187.734 117.034 188.083 130.004 188.441C148.164 188.942 166.352 188.396 184.528 188.3C186.069 188.291 187.612 188.34 189.151 188.281C192.384 188.159 193.779 189.446 193.853 192.905C194.134 206.077 194.235 206.057 180.927 206.055C162.124 206.053 143.321 206.079 124.071 206.094ZM127.466 192.519C125.098 195.766 125.855 198.741 128.084 201.604C129.421 198.547 130.467 195.523 127.466 192.519Z" fill="black"/>
<path d="M203.062 154.166C202.388 149.805 201.064 145.833 202.068 141.766C204.709 141.397 205.942 142.969 207.242 144.152C210.996 147.57 214.66 151.077 217.872 155.045C224.404 163.115 231.372 170.706 241.508 174.382C245.621 175.873 245.603 178.967 243.725 181.765C237.679 190.772 230.504 199.009 221.276 204.687C215.539 208.217 208.345 206.08 201.801 205.947C200.015 205.911 199.922 203.793 200.051 202.202C200.409 197.777 203.524 194.173 208.466 193.79C216.044 193.203 218.412 187.322 221.338 182.036C222.88 179.25 220.486 177.46 218.599 175.894C211.61 170.093 205.747 163.505 203.062 154.166Z" fill="black"/>
<path d="M122.785 42.6924C117.221 45.8102 117.004 45.8064 114.026 40.6989C112.749 38.5087 111.131 36.3842 111.04 33.0781C117.451 32.6677 122.213 35.7432 127.086 38.4941C126.532 41.1378 124.67 41.6947 122.785 42.6924Z" fill="black"/>
<path d="M15.6001 269.1C15.6001 262.3 17.1668 256.2 20.3001 250.8C23.5001 245.4 27.8001 241.2 33.2001 238.2C38.6668 235.133 44.6335 233.6 51.1001 233.6C58.5001 233.6 65.0668 235.433 70.8002 239.1C76.6002 242.7 80.8002 247.833 83.4001 254.5H69.7001C67.9001 250.833 65.4001 248.1 62.2001 246.3C59.0001 244.5 55.3001 243.6 51.1001 243.6C46.5001 243.6 42.4001 244.633 38.8001 246.7C35.2001 248.767 32.3668 251.733 30.3001 255.6C28.3001 259.467 27.3001 263.967 27.3001 269.1C27.3001 274.233 28.3001 278.733 30.3001 282.6C32.3668 286.467 35.2001 289.467 38.8001 291.6C42.4001 293.667 46.5001 294.7 51.1001 294.7C55.3001 294.7 59.0001 293.8 62.2001 292C65.4001 290.2 67.9001 287.467 69.7001 283.8H83.4001C80.8002 290.467 76.6002 295.6 70.8002 299.2C65.0668 302.8 58.5001 304.6 51.1001 304.6C44.5668 304.6 38.6001 303.1 33.2001 300.1C27.8001 297.033 23.5001 292.8 20.3001 287.4C17.1668 282 15.6001 275.9 15.6001 269.1ZM138.644 289.8H109.544L104.544 304H92.6439L117.544 234.4H130.744L155.644 304H143.644L138.644 289.8ZM135.444 280.5L124.144 248.2L112.744 280.5H135.444ZM198.17 304.7C191.704 304.7 185.737 303.2 180.27 300.2C174.87 297.133 170.57 292.9 167.37 287.5C164.237 282.033 162.67 275.9 162.67 269.1C162.67 262.3 164.237 256.2 167.37 250.8C170.57 245.4 174.87 241.2 180.27 238.2C185.737 235.133 191.704 233.6 198.17 233.6C204.704 233.6 210.67 235.133 216.07 238.2C221.537 241.2 225.837 245.4 228.97 250.8C232.104 256.2 233.67 262.3 233.67 269.1C233.67 275.9 232.104 282.033 228.97 287.5C225.837 292.9 221.537 297.133 216.07 300.2C210.67 303.2 204.704 304.7 198.17 304.7ZM198.17 294.8C202.77 294.8 206.87 293.767 210.47 291.7C214.07 289.567 216.87 286.567 218.87 282.7C220.937 278.767 221.97 274.233 221.97 269.1C221.97 263.967 220.937 259.467 218.87 255.6C216.87 251.733 214.07 248.767 210.47 246.7C206.87 244.633 202.77 243.6 198.17 243.6C193.57 243.6 189.47 244.633 185.87 246.7C182.27 248.767 179.437 251.733 177.37 255.6C175.37 259.467 174.37 263.967 174.37 269.1C174.37 274.233 175.37 278.767 177.37 282.7C179.437 286.567 182.27 289.567 185.87 291.7C189.47 293.767 193.57 294.8 198.17 294.8ZM267.788 304.7C263.122 304.7 258.922 303.9 255.188 302.3C251.455 300.633 248.522 298.3 246.388 295.3C244.255 292.3 243.188 288.8 243.188 284.8H255.388C255.655 287.8 256.822 290.267 258.888 292.2C261.022 294.133 263.988 295.1 267.788 295.1C271.722 295.1 274.788 294.167 276.988 292.3C279.188 290.367 280.288 287.9 280.288 284.9C280.288 282.567 279.588 280.667 278.188 279.2C276.855 277.733 275.155 276.6 273.088 275.8C271.088 275 268.288 274.133 264.688 273.2C260.155 272 256.455 270.8 253.588 269.6C250.788 268.333 248.388 266.4 246.388 263.8C244.388 261.2 243.388 257.733 243.388 253.4C243.388 249.4 244.388 245.9 246.388 242.9C248.388 239.9 251.188 237.6 254.788 236C258.388 234.4 262.555 233.6 267.288 233.6C274.022 233.6 279.522 235.3 283.788 238.7C288.122 242.033 290.522 246.633 290.988 252.5H278.388C278.188 249.967 276.988 247.8 274.788 246C272.588 244.2 269.688 243.3 266.088 243.3C262.822 243.3 260.155 244.133 258.088 245.8C256.022 247.467 254.988 249.867 254.988 253C254.988 255.133 255.622 256.9 256.888 258.3C258.222 259.633 259.888 260.7 261.888 261.5C263.888 262.3 266.622 263.167 270.088 264.1C274.688 265.367 278.422 266.633 281.288 267.9C284.222 269.167 286.688 271.133 288.688 273.8C290.755 276.4 291.788 279.9 291.788 284.3C291.788 287.833 290.822 291.167 288.888 294.3C287.022 297.433 284.255 299.967 280.588 301.9C276.988 303.767 272.722 304.7 267.788 304.7Z" fill="black"/>
</svg>
