<svg width="630" height="1010" viewBox="0 0 630 1010" fill="none" xmlns="http://www.w3.org/2000/svg">
<path d="M0 1.37471V1010H447.209C518.916 997.279 648.429 861.541 554.77 769.505C396.929 614.4 481.138 466.009 578.231 532.039C675.325 598.069 648.351 178.702 363.109 206.129C186.53 223.107 224.109 20.0791 325.998 1.37471H356.612C345.914 -0.515364 335.666 -0.400202 325.998 1.37471H0Z" fill="#9D4900"/>
<path d="M0 1.37471V1010H447.209C518.916 997.279 648.429 861.541 554.77 769.505C396.929 614.4 481.138 466.009 578.231 532.039C675.325 598.069 648.351 178.702 363.109 206.129C169.774 224.718 233.17 -20.4334 356.612 1.37471H0Z" stroke="#FF7700"/>
</svg>
